# xmcd
#
# Track frame offsets: 
#        300
#        26703
#        56555
#
# Disc length: 997 seconds
#
# Revision: 0
# Processed by: cddbd v1.5PL3 Copyright (c) Steve Scherf et al.
# Submitted via: ExactAudioCopy v0.95a4
#
DISCID=2203e103
DTITLE=Buck Shamus - Battle of the Bands Original Demo CD
DYEAR=2004
DGENRE=Blues
TTITLE0=I'm Not Saying
TTITLE1=Total Emotion
TTITLE2=Come Undone
EXTD=
EXTT0=
EXTT1=
EXTT2=
PLAYORDER=
